<svg width="280" height="93" viewBox="0 0 280 93" fill="none" xmlns="http://www.w3.org/2000/svg">
<path d="M117.438 36.125V53H80.5625V36.125H117.438ZM87.5625 0V91H66.1875V0H87.5625ZM131.875 0V91H110.5V0H131.875Z" fill="black"/>
<path d="M184.312 0H205.75V61.9375C205.75 69.0208 204.479 74.8125 201.938 79.3125C199.396 83.7708 195.833 87.0417 191.25 89.125C186.667 91.2083 181.25 92.25 175 92.25C168.792 92.25 163.375 91.2083 158.75 89.125C154.125 87.0417 150.5 83.7708 147.875 79.3125C145.292 74.8125 144 69.0208 144 61.9375V0H165.5V61.9375C165.5 65.6875 165.833 68.5417 166.5 70.5C167.208 72.4167 168.271 73.7083 169.688 74.375C171.104 75.0417 172.875 75.375 175 75.375C177.167 75.375 178.938 75.0417 180.312 74.375C181.688 73.7083 182.688 72.4167 183.312 70.5C183.979 68.5417 184.312 65.6875 184.312 61.9375V0Z" fill="black"/>
<path d="M250.438 52.3125H231.562L231.438 37.9375H246.688C249.229 37.9375 251.229 37.5625 252.688 36.8125C254.146 36.0208 255.188 34.875 255.812 33.375C256.479 31.875 256.812 30 256.812 27.75C256.812 25.1667 256.479 23.0833 255.812 21.5C255.146 19.9167 254.083 18.7708 252.625 18.0625C251.208 17.3125 249.354 16.9375 247.062 16.9375H239.562V91H218.188V0H247.062C251.938 0 256.292 0.520833 260.125 1.5625C263.958 2.5625 267.208 4.10417 269.875 6.1875C272.583 8.27083 274.646 10.8958 276.062 14.0625C277.479 17.1875 278.188 20.875 278.188 25.125C278.188 28.8333 277.5 32.3125 276.125 35.5625C274.792 38.8125 272.479 41.4583 269.188 43.5C265.896 45.5 261.375 46.5417 255.625 46.625L250.438 52.3125ZM249.688 91H226.25L233.625 74.125H249.688C251.854 74.125 253.542 73.6667 254.75 72.75C255.958 71.7917 256.812 70.5417 257.312 69C257.812 67.4167 258.062 65.6667 258.062 63.75C258.062 61.4167 257.812 59.3958 257.312 57.6875C256.854 55.9792 256.083 54.6667 255 53.75C253.917 52.7917 252.396 52.3125 250.438 52.3125H234.375L234.5 37.9375H253.062L258.188 43.6875C263.646 43.4375 267.917 44.2917 271 46.25C274.083 48.2083 276.25 50.7917 277.5 54C278.75 57.2083 279.375 60.5625 279.375 64.0625C279.375 70.0208 278.271 75 276.062 79C273.896 83 270.604 86 266.188 88C261.771 90 256.271 91 249.688 91Z" fill="black"/>
<path d="M16.0176 71.5264H24.0156L24.0156 91.0771H16.0176L16.0176 71.5264ZM6.82324 87.5225L6.82324 76.2773H40.9346C41.9144 76.2773 42.6777 76.209 43.2246 76.0723C43.7487 75.9128 44.1247 75.6279 44.3525 75.2178C44.5576 74.7848 44.6602 74.181 44.6602 73.4062C44.6602 72.8594 44.6488 72.415 44.626 72.0732C44.5804 71.7087 44.5234 71.3896 44.4551 71.1162L52.6924 71.1846C53.0114 72.0732 53.2507 72.9961 53.4102 73.9531C53.5924 74.8874 53.6836 75.9128 53.6836 77.0293C53.6836 79.2396 53.2962 81.1309 52.5215 82.7031C51.7467 84.2526 50.5277 85.4489 48.8643 86.292C47.2008 87.1123 45.0361 87.5225 42.3701 87.5225H6.82324Z" fill="black"/>
<path d="M0.5 54.7455H53V65.9906H0.5L0.5 54.7455ZM33.2441 56.0785L33.3125 58.6078C30.7148 58.6534 28.3223 58.4255 26.1348 57.9242C23.9473 57.4001 22.0446 56.6482 20.4268 55.6684C18.8089 54.6658 17.5557 53.4695 16.667 52.0795C15.7783 50.6667 15.334 49.1059 15.334 47.3969C15.334 45.893 15.596 44.503 16.1201 43.227C16.6442 41.9281 17.4873 40.8116 18.6494 39.8773C19.8115 38.9431 21.3268 38.2139 23.1953 37.6898C25.0638 37.1658 27.3424 36.9037 30.0312 36.9037H53V48.183H29.9629C28.459 48.183 27.2969 48.3197 26.4766 48.5932C25.6335 48.8666 25.0524 49.2768 24.7334 49.8236C24.3916 50.3477 24.2207 51.0199 24.2207 51.8402C24.2207 52.7973 24.4486 53.572 24.9043 54.1645C25.36 54.7341 25.998 55.1671 26.8184 55.4633C27.6159 55.7367 28.5615 55.9076 29.6553 55.976C30.749 56.0443 31.9453 56.0785 33.2441 56.0785Z" fill="black"/>
<path d="M53.6836 13.7654C53.6836 16.4087 53.319 18.7671 52.5898 20.8406C51.8607 22.8914 50.7897 24.6118 49.377 26.0018C47.9414 27.3917 46.1982 28.4513 44.1475 29.1805C42.0967 29.8868 39.7497 30.24 37.1064 30.24H33.0732C30.111 30.24 27.5247 29.9324 25.3145 29.3172C23.1042 28.6792 21.2699 27.7335 19.8115 26.4803C18.3304 25.227 17.2139 23.632 16.4619 21.6951C15.71 19.7583 15.334 17.4796 15.334 14.8592C15.334 12.5577 15.6758 10.5184 16.3594 8.74102C17.043 6.94089 18.1025 5.42559 19.5381 4.19512C20.9508 2.94186 22.7624 1.98483 24.9727 1.32402C27.1602 0.663215 29.7578 0.332811 32.7656 0.332811L38.1318 0.332811L38.1318 26.0359H30.9199V11.3045H29.6553C28.1514 11.2817 27.012 11.4184 26.2373 11.7146C25.4626 11.9881 24.9385 12.3982 24.665 12.9451C24.3688 13.492 24.2207 14.1642 24.2207 14.9617C24.2207 15.896 24.3802 16.6365 24.6992 17.1834C25.0182 17.7303 25.5195 18.129 26.2031 18.3797C26.8867 18.6303 27.7982 18.8012 28.9375 18.8924C30.0768 18.9607 31.4554 18.9949 33.0732 18.9949H37.1064C38.7015 18.9949 40.0003 18.8696 41.0029 18.6189C42.0055 18.3455 42.7803 17.9581 43.3271 17.4568C43.874 16.9327 44.2614 16.3061 44.4893 15.577C44.6943 14.825 44.7969 13.9705 44.7969 13.0135C44.7969 11.6463 44.569 10.3133 44.1133 9.01445C43.6348 7.71562 42.86 6.61048 41.7891 5.69902L48.7617 1.11894C49.5592 1.73418 50.3454 2.64564 51.1201 3.85332C51.8721 5.061 52.4873 6.49655 52.9658 8.15996C53.4443 9.82337 53.6836 11.6919 53.6836 13.7654Z" fill="black"/>
</svg>
